<svg width="31" height="24" viewBox="0 0 31 24" fill="none" xmlns="http://www.w3.org/2000/svg">
<path d="M9.99462 13.3908L9.99463 13.3906H9.98447H4.19165V13.3904L4.1815 13.3908C4.01089 13.3978 3.84981 13.4713 3.73287 13.5957C3.61772 13.7182 3.55441 13.8804 3.55595 14.0483C3.55349 14.1313 3.56711 14.2141 3.5961 14.292C3.62601 14.3723 3.67166 14.4459 3.73039 14.5083C3.78911 14.5708 3.85972 14.6209 3.93807 14.6557C4.01643 14.6906 4.10094 14.7094 4.18666 14.7111L4.18666 14.7111H4.19165H9.98447V14.7112L9.98946 14.7111C10.0752 14.7094 10.1597 14.6906 10.2381 14.6557C10.3164 14.6209 10.387 14.5708 10.4457 14.5083C10.5045 14.4459 10.5501 14.3723 10.58 14.292C10.609 14.2141 10.6226 14.1313 10.6202 14.0483C10.6217 13.8804 10.5584 13.7182 10.4433 13.5957C10.3263 13.4713 10.1652 13.3978 9.99462 13.3908Z" fill="#007ACD" stroke="#778C9B" stroke-width="0.5"/>
<path d="M27.1244 1.08312L27.1244 1.08301H27.117H3.47802V1.0829L3.47067 1.08312C2.60162 1.10868 1.77793 1.47678 1.17916 2.10715C0.581036 2.73684 0.255811 3.57723 0.274175 4.44545V6.66634V10.7689V19.5621C0.255841 20.4296 0.581409 21.2693 1.17989 21.8977L1.36093 21.7253L1.17989 21.8977C1.77902 22.5268 2.6029 22.893 3.47132 22.9163L3.47132 22.9163H3.47802H27.1088V22.9164L27.1155 22.9163C27.9839 22.893 28.8078 22.5268 29.4069 21.8977C30.0054 21.2693 30.331 20.4297 30.3126 19.5621V10.7525V4.4458C30.3333 3.57836 30.01 2.73791 29.4132 2.10791C28.8158 1.47714 27.9928 1.10868 27.1244 1.08312ZM28.9839 4.43455V6.00608H1.58648V4.43455H1.58655L1.58642 4.42892C1.57465 3.90574 1.7703 3.39915 2.13065 3.01968C2.4902 2.64106 2.9846 2.41967 3.50639 2.40352H27.0877C27.6057 2.42363 28.095 2.64675 28.4499 3.02477L28.6322 2.85366L28.4499 3.02477C28.8059 3.40387 28.9978 3.90811 28.984 4.42792L28.9839 4.42792V4.43455ZM1.59469 19.573V11.4292H28.9921V19.573H28.992L28.9922 19.5796C29.0059 20.0997 28.8129 20.604 28.4554 20.9819C28.0987 21.359 27.6073 21.5797 27.0886 21.5958H3.49821C2.97948 21.5797 2.48813 21.359 2.13144 20.9819C1.77394 20.604 1.58089 20.0997 1.5946 19.5796L1.59469 19.5796V19.573ZM1.59469 7.3266H28.9921V10.1086H1.59469V7.3266Z" fill="#007ACD" stroke="#778C9B" stroke-width="0.5"/>
</svg>
