<svg width="22" height="28" viewBox="0 0 22 28" fill="none" xmlns="http://www.w3.org/2000/svg">
<path d="M5.98075 22.4197C6.93327 23.4937 7.95877 24.5027 9.05011 25.4396H2.77012C2.55378 25.4396 2.34599 25.5242 2.19254 25.6753C2.03904 25.8264 1.95251 26.0317 1.95251 26.2461C1.95251 26.4605 2.03904 26.6658 2.19254 26.8169C2.34599 26.968 2.55378 27.0526 2.77012 27.0526H19.9927C20.2091 27.0526 20.4168 26.968 20.5703 26.8169C20.7238 26.6658 20.8103 26.4605 20.8103 26.2461C20.8103 26.0317 20.7238 25.8264 20.5703 25.6753C20.4168 25.5242 20.2091 25.4396 19.9927 25.4396H13.7127C14.8041 24.5027 15.8296 23.4937 16.7821 22.4197L16.7822 22.4195C20.0375 18.7339 21.7671 14.8492 21.7671 11.1743C21.7671 8.46154 20.6725 5.86025 18.7247 3.94255C16.7769 2.0249 14.1354 0.947852 11.3814 0.947852C8.62745 0.947852 5.98598 2.0249 4.03816 3.94255C2.0903 5.86025 0.995703 8.46154 0.995703 11.1743C0.995703 14.8456 2.72535 18.7339 5.98062 22.4195L5.98075 22.4197ZM2.63092 11.1743C2.63092 8.89035 3.55246 6.69965 5.19333 5.0842C6.83425 3.46869 9.06014 2.56084 11.3814 2.56084C13.7027 2.56084 15.9286 3.46869 17.5695 5.0842C19.2104 6.69965 20.1319 8.89035 20.1319 11.1743C20.1319 14.6515 18.3835 17.8363 16.4012 20.3282C14.4634 22.7642 12.311 24.5268 11.3814 25.2384C10.4519 24.5268 8.29948 22.7642 6.36167 20.3282C4.37934 17.8363 2.63092 14.6515 2.63092 11.1743ZM16.0263 11.1743C16.0263 10.2692 15.7536 9.38453 15.2431 8.63222C14.7325 7.87994 14.007 7.29384 13.1584 6.9478C12.3099 6.60177 11.3763 6.51125 10.4755 6.68764C9.57483 6.86403 8.74726 7.29945 8.09757 7.93908C7.44786 8.57872 7.00522 9.39387 6.82588 10.2815C6.64653 11.1692 6.73859 12.0893 7.09035 12.9253C7.4421 13.7614 8.03766 14.4757 8.80148 14.9782C9.56528 15.4806 10.4631 15.7487 11.3814 15.7487C12.6128 15.7487 13.7941 15.2671 14.6653 14.4094C15.5365 13.5517 16.0263 12.388 16.0263 11.1743ZM8.37178 11.1743C8.37178 10.5889 8.54809 10.0165 8.87859 9.52955C9.20911 9.04256 9.67906 8.66276 10.2292 8.43842C10.7793 8.21408 11.3847 8.15536 11.9689 8.26975C12.553 8.38413 13.0893 8.66644 13.5101 9.08073C13.9309 9.495 14.2173 10.0226 14.3333 10.5968C14.4493 11.171 14.3898 11.7661 14.1622 12.3071C13.9346 12.848 13.549 13.3106 13.0541 13.6362C12.5591 13.9618 11.977 14.1357 11.3814 14.1357C10.5827 14.1357 9.81703 13.8233 9.25273 13.2678C8.68848 12.7123 8.37178 11.9592 8.37178 11.1743Z" fill="#007ACD" stroke="#007ACD" stroke-width="0.2"/>
</svg>
