<svg width="26" height="30" viewBox="0 0 26 30" fill="none" xmlns="http://www.w3.org/2000/svg">
<path d="M13.381 0.523438C11.4758 0.523438 9.64857 1.28602 8.30137 2.64343C6.95417 4.00083 6.19733 5.84187 6.19733 7.76153C6.19733 9.68119 6.95417 11.5222 8.30137 12.8796C9.64857 14.237 11.4758 14.9996 13.381 14.9996C15.2862 14.9996 17.1134 14.237 18.4606 12.8796C19.8078 11.5222 20.5647 9.68119 20.5647 7.76153C20.5647 5.84187 19.8078 4.00083 18.4606 2.64343C17.1134 1.28602 15.2862 0.523438 13.381 0.523438ZM7.99324 7.76153C7.99324 6.32179 8.56088 4.94101 9.57128 3.92295C10.5817 2.9049 11.9521 2.33296 13.381 2.33296C14.8099 2.33296 16.1803 2.9049 17.1907 3.92295C18.2011 4.94101 18.7688 6.32179 18.7688 7.76153C18.7688 9.20128 18.2011 10.5821 17.1907 11.6001C16.1803 12.6182 14.8099 13.1901 13.381 13.1901C11.9521 13.1901 10.5817 12.6182 9.57128 11.6001C8.56088 10.5821 7.99324 9.20128 7.99324 7.76153ZM4.41757 16.8092C3.94459 16.8072 3.47589 16.8994 3.03835 17.0804C2.60081 17.2614 2.20303 17.5277 1.86783 17.8639C1.53263 18.2001 1.2666 18.5997 1.085 19.0398C0.903403 19.4798 0.809803 19.9516 0.80957 20.4282C0.80957 23.4881 2.30557 25.7952 4.64386 27.299C6.94622 28.7773 10.0496 29.4758 13.381 29.4758C16.7124 29.4758 19.8158 28.7773 22.1181 27.299C24.4564 25.7971 25.9524 23.4863 25.9524 20.4282C25.9524 19.4684 25.574 18.5478 24.9004 17.8691C24.2268 17.1904 23.3132 16.8092 22.3606 16.8092H4.41757ZM2.60549 20.4282C2.60549 19.4275 3.41006 18.6187 4.41757 18.6187H22.3606C22.8369 18.6187 23.2937 18.8093 23.6305 19.1487C23.9673 19.488 24.1565 19.9483 24.1565 20.4282C24.1565 22.7969 23.0394 24.5611 21.1519 25.7717C19.2303 27.0076 16.4969 27.6663 13.381 27.6663C10.2651 27.6663 7.53169 27.0076 5.61006 25.7717C3.72435 24.5593 2.60549 22.7987 2.60549 20.4282Z" fill="#778C9B"/>
</svg>
