<svg width="28" height="27" viewBox="0 0 28 27" fill="none" xmlns="http://www.w3.org/2000/svg">
<path d="M11.6667 20.4997L9 19.1663M9 19.1663L1 23.1663V5.83301L9 1.83301M9 19.1663V1.83301M9 1.83301L17 5.83301M17 5.83301L25 1.83301V12.4997M17 5.83301V12.4997M23.9333 23.433L26.3333 25.833M17 20.4997C17 21.5605 17.4214 22.578 18.1716 23.3281C18.9217 24.0782 19.9391 24.4997 21 24.4997C22.0609 24.4997 23.0783 24.0782 23.8284 23.3281C24.5786 22.578 25 21.5605 25 20.4997C25 19.4388 24.5786 18.4214 23.8284 17.6712C23.0783 16.9211 22.0609 16.4997 21 16.4997C19.9391 16.4997 18.9217 16.9211 18.1716 17.6712C17.4214 18.4214 17 19.4388 17 20.4997Z" stroke="#778C9B" stroke-width="2" stroke-linecap="round" stroke-linejoin="round"/>
</svg>
