<svg width="34" height="34" viewBox="0 0 34 34" fill="none" xmlns="http://www.w3.org/2000/svg">
<path d="M15.4975 8.01501H14.0988C14.1018 8.00188 14.1018 7.98833 14.0988 7.9752V6.83783C14.098 6.65438 14.0582 6.47288 13.9815 6.30376C13.9048 6.13463 13.7929 5.9812 13.6521 5.85228C13.5113 5.72335 13.3445 5.62147 13.1611 5.55248C12.9778 5.48349 12.7815 5.44874 12.5836 5.45024H8.98277C8.78281 5.44872 8.58454 5.48419 8.39957 5.5546C8.21459 5.62501 8.04663 5.72893 7.90552 5.86027C7.76441 5.99161 7.65299 6.14774 7.5778 6.3195C7.5026 6.49127 7.46513 6.67522 7.46758 6.86058V7.99795C7.46758 7.99795 7.46758 7.99795 7.46758 8.03775H5.92786C5.72968 8.0355 5.53297 8.06946 5.34895 8.13769C5.16493 8.20592 4.99721 8.30708 4.85537 8.43541C4.71353 8.56373 4.60035 8.7167 4.52229 8.88558C4.44422 9.05446 4.40281 9.23594 4.4004 9.41966V27.1455C4.39959 27.3302 4.43823 27.5132 4.51409 27.684C4.58995 27.8547 4.70152 28.0099 4.84238 28.1404C4.98324 28.271 5.1506 28.3745 5.33479 28.4448C5.51899 28.5151 5.71639 28.5509 5.91559 28.5502H15.4852C15.6844 28.5509 15.8818 28.5151 16.066 28.4448C16.2502 28.3745 16.4175 28.271 16.5584 28.1404C16.6993 28.0099 16.8108 27.8547 16.8867 27.684C16.9626 27.5132 17.0012 27.3302 17.0004 27.1455V9.41966C17.0012 9.23594 16.963 9.05388 16.8879 8.88386C16.8128 8.71385 16.7023 8.55921 16.5627 8.42877C16.4232 8.29834 16.2573 8.19466 16.0745 8.12367C15.8917 8.05268 15.6956 8.01575 15.4975 8.01501ZM8.08102 7.9752V6.83783C8.07937 6.72763 8.10156 6.61823 8.1463 6.51612C8.19103 6.414 8.25739 6.32124 8.34146 6.2433C8.42552 6.16537 8.52559 6.10385 8.63574 6.06238C8.74589 6.02091 8.86389 6.00034 8.98277 6.00187H12.5714C12.6887 6.00036 12.8052 6.02039 12.9141 6.0608C13.023 6.10122 13.1223 6.16121 13.2061 6.23732C13.2899 6.31344 13.3567 6.40418 13.4025 6.50432C13.4483 6.60445 13.4723 6.712 13.4731 6.82077V7.95814C13.4705 7.97129 13.4705 7.98479 13.4731 7.99795H8.08102C8.08188 7.99038 8.08188 7.98276 8.08102 7.9752ZM16.3992 27.1626C16.3984 27.2714 16.3744 27.3789 16.3286 27.4791C16.2828 27.5792 16.216 27.6699 16.1322 27.746C16.0484 27.8222 15.9491 27.8822 15.8402 27.9226C15.7313 27.963 15.6148 27.983 15.4975 27.9815H5.90946C5.79132 27.9815 5.67436 27.9598 5.5653 27.9178C5.45623 27.8757 5.35723 27.814 5.27398 27.7363C5.19073 27.6586 5.12489 27.5664 5.08025 27.465C5.0356 27.3636 5.01303 27.255 5.01384 27.1455V9.4026C5.01464 9.29383 5.03864 9.18627 5.08447 9.08614C5.1303 8.98601 5.19704 8.89527 5.28086 8.81915C5.36468 8.74303 5.46391 8.68304 5.57285 8.64263C5.68178 8.60222 5.79827 8.58219 5.91559 8.58369H15.5159C15.6329 8.58368 15.7488 8.60523 15.8568 8.6471C15.9647 8.68896 16.0627 8.7503 16.1449 8.82755C16.2271 8.9048 16.2919 8.99642 16.3355 9.09709C16.3792 9.19776 16.4008 9.30548 16.3992 9.41397V27.1626Z" fill="#007ACD" stroke="#007ACD" stroke-width="0.5"/>
<path d="M28.7768 14.137H26.3408C26.2107 14.14 26.0828 14.1717 25.9658 14.2301C25.8488 14.2884 25.7456 14.3719 25.6632 14.4749L25.4728 14.7728L24.9464 13.6272L24.8904 13.5127C24.6518 12.9564 24.3709 12.4202 24.0504 11.9088C23.706 11.5183 23.2455 11.2546 22.74 11.1585C20.9346 10.8591 19.109 10.7059 17.28 10.7003C17.2435 10.6995 17.2072 10.7062 17.1733 10.72C17.1393 10.7337 17.1084 10.7543 17.0823 10.7804C17.0563 10.8065 17.0355 10.8377 17.0214 10.8722C17.0073 10.9066 17 10.9436 17 10.9809C17 11.0574 17.0293 11.1309 17.0817 11.1855C17.134 11.2401 17.2052 11.2715 17.28 11.273C19.0679 11.2872 20.8522 11.4423 22.6168 11.737C22.9996 11.8119 23.3478 12.0131 23.608 12.3098C23.8864 12.7878 24.1388 13.2811 24.364 13.7876L24.42 13.9021L24.98 15.0477C25.0192 15.1451 25.064 15.2367 25.1032 15.3227L24.924 15.5919C24.8271 15.7478 24.6808 15.8651 24.5096 15.9241L23.3896 16.2907C23.3053 16.3133 23.219 16.3267 23.132 16.3308H17.28C17.2057 16.3308 17.1345 16.3609 17.082 16.4147C17.0295 16.4684 17 16.5412 17 16.6172C17 16.6931 17.0295 16.766 17.082 16.8197C17.1345 16.8734 17.2057 16.9036 17.28 16.9036H23.1656C23.3018 16.8975 23.437 16.8764 23.5688 16.8406L24.6888 16.4682C24.983 16.3663 25.2341 16.1641 25.4 15.8955L25.5064 15.7293C25.5378 15.7259 25.5683 15.7162 25.596 15.7007C25.6572 15.6729 25.7063 15.6232 25.7341 15.561C25.762 15.4988 25.7666 15.4283 25.7472 15.3628L26.1168 14.79C26.1464 14.7561 26.1827 14.7289 26.2232 14.7102C26.2637 14.6914 26.3075 14.6815 26.352 14.6811H28.7768C28.8111 14.6804 28.8452 14.6866 28.8771 14.6995C28.909 14.7124 28.9381 14.7317 28.9626 14.7563C28.9871 14.7808 29.0066 14.8101 29.0199 14.8425C29.0332 14.8748 29.04 14.9095 29.04 14.9446V16.0902C29.04 16.1253 29.0332 16.16 29.0199 16.1924C29.0066 16.2247 28.9871 16.254 28.9626 16.2786C28.9381 16.3031 28.909 16.3224 28.8771 16.3353C28.8452 16.3482 28.8111 16.3545 28.7768 16.3537H28.7096L27.276 16.7203C27.1732 16.7414 27.0759 16.7843 26.9904 16.8463C26.8149 16.9704 26.6942 17.1601 26.6544 17.3745C26.6146 17.5888 26.6588 17.8106 26.7776 17.9919L27.36 18.9083C27.3947 18.9522 27.4144 19.0066 27.416 19.063V22.809C27.4131 23.1773 27.2688 23.5295 27.0142 23.7899C26.7596 24.0503 26.4152 24.1979 26.0552 24.2009H17.28C17.2057 24.2009 17.1345 24.2311 17.082 24.2848C17.0295 24.3385 17 24.4113 17 24.4873C17 24.5633 17.0295 24.6361 17.082 24.6898C17.1345 24.7435 17.2057 24.7737 17.28 24.7737H26.016C26.2459 24.7667 26.4731 24.7202 26.688 24.6362V26.6868C26.6865 26.7572 26.6582 26.8242 26.609 26.8735C26.5598 26.9227 26.4936 26.9503 26.4248 26.9503H22.6056C22.5377 26.9488 22.473 26.9206 22.425 26.8715C22.377 26.8224 22.3494 26.7562 22.348 26.6868V26.114C22.3466 26.0385 22.3166 25.9665 22.2644 25.9131C22.2122 25.8597 22.1418 25.8291 22.068 25.8276C21.9937 25.8276 21.9225 25.8578 21.87 25.9115C21.8175 25.9652 21.788 26.0381 21.788 26.114V26.6868C21.7938 26.9046 21.8825 27.1115 22.0352 27.2634C22.1879 27.4153 22.3926 27.5003 22.6056 27.5002H26.4248C26.5326 27.5009 26.6396 27.4799 26.7394 27.4382C26.8392 27.3965 26.93 27.335 27.0066 27.2573C27.0831 27.1795 27.1438 27.0871 27.1852 26.9853C27.2267 26.8834 27.248 26.7742 27.248 26.6639V24.4472C27.2565 24.4056 27.2565 24.3628 27.248 24.3212C27.4767 24.1392 27.6621 23.9065 27.7901 23.6406C27.9182 23.3747 27.9856 23.0825 27.9872 22.7861V19.0343C27.9872 18.8581 27.9301 18.6869 27.8248 18.5475L27.2648 17.6997C27.2458 17.6716 27.2324 17.6399 27.2255 17.6065C27.2186 17.573 27.2183 17.5385 27.2245 17.5049C27.2308 17.4713 27.2435 17.4394 27.262 17.4109C27.2804 17.3824 27.3042 17.3579 27.332 17.3389C27.3591 17.3198 27.3895 17.3062 27.4216 17.2988L28.8384 16.9379C29.0454 16.9234 29.2392 16.8289 29.3807 16.6736C29.5221 16.5183 29.6005 16.3139 29.6 16.1017V14.9561C29.5956 14.7363 29.5067 14.5271 29.3527 14.3738C29.1986 14.2205 28.9917 14.1354 28.7768 14.137Z" fill="#007ACD" stroke="#007ACD" stroke-width="0.5"/>
<path d="M17.2681 22.25H21.9819C22.0526 22.25 22.12 22.25 22.1699 22.25C22.2199 22.25 22.2486 22.25 22.25 22.25C22.25 22.25 22.2218 22.25 22.1715 22.25C22.1212 22.25 22.053 22.25 21.9819 22.25H17.2681C17.197 22.25 17.1288 22.25 17.0785 22.25C17.0282 22.25 17 22.25 17 22.25C17 22.25 17.0282 22.25 17.0785 22.25C17.1288 22.25 17.197 22.25 17.2681 22.25Z" fill="#007ACD" stroke="#007ACD" stroke-width="0.5"/>
</svg>
