<svg width="34" height="34" viewBox="0 0 34 34" fill="none" xmlns="http://www.w3.org/2000/svg">
<path d="M25.8616 9.71231C24.6526 9.43463 23.4263 9.23849 22.191 9.1252C22.1171 9.11928 22.0482 9.08576 21.9981 9.03134C21.9479 8.97691 21.9202 8.9056 21.9204 8.83164V3.21298C21.9319 2.93323 21.8537 2.6571 21.6971 2.42479C21.5406 2.19247 21.3138 2.0161 21.0498 1.92134C20.9284 1.87352 20.7973 1.8554 20.6675 1.8685C20.5309 1.87511 20.3952 1.89278 20.2616 1.92134C20.0012 2.02087 19.7783 2.19856 19.6234 2.4299C19.4685 2.66124 19.3894 2.93485 19.3969 3.21298V8.62028C19.3969 8.66036 19.3888 8.70003 19.3729 8.73684C19.357 8.77366 19.3338 8.80684 19.3046 8.83434C19.2754 8.86184 19.2408 8.88309 19.2031 8.89676C19.1653 8.91043 19.1252 8.91624 19.0851 8.91384C18.5322 8.88448 18.0733 8.87861 17.0263 8.87861H15.9792H14.9498C14.8718 8.87861 14.797 8.84768 14.7418 8.79263C14.6867 8.73758 14.6557 8.66291 14.6557 8.58506V3.21298C14.6672 2.93323 14.589 2.6571 14.4324 2.42479C14.2759 2.19247 14.0491 2.0161 13.7851 1.92134C13.6637 1.87352 13.5326 1.8554 13.4027 1.8685C13.2662 1.87511 13.1305 1.89278 12.9969 1.92134C12.7365 2.02087 12.5136 2.19856 12.3587 2.4299C12.2038 2.66124 12.1247 2.93485 12.1322 3.21298V8.86687C12.1309 8.9398 12.1025 9.00967 12.0525 9.06286C12.0025 9.11604 11.9344 9.14873 11.8616 9.15455C10.6099 9.27661 9.36649 9.47266 8.13804 9.74167V12.2017L10.2027 13.6988C10.2401 13.7267 10.2702 13.7631 10.2907 13.805C10.3111 13.8468 10.3213 13.893 10.3204 13.9395V17.4211C10.3204 20.2099 11.3322 21.6248 15.0969 22.0417C15.1681 22.0515 15.2334 22.0866 15.2809 22.1404C15.3284 22.1943 15.355 22.2634 15.3557 22.3352V30.5548C15.8303 30.9164 16.406 31.1216 17.0027 31.1419C17.5948 31.1487 18.1716 30.9541 18.638 30.59V22.3059C18.6391 22.2338 18.6667 22.1647 18.7155 22.1117C18.7643 22.0587 18.8309 22.0254 18.9027 22.0182C22.6733 21.5955 23.6733 20.204 23.6733 17.3917V13.9102C23.674 13.8633 23.6855 13.8171 23.7069 13.7754C23.7284 13.7337 23.7591 13.6974 23.7969 13.6694L25.8616 12.1782V9.71231ZM26.2204 9.19565C26.2853 9.20915 26.3435 9.24454 26.3853 9.29587C26.4271 9.3472 26.4498 9.41133 26.4498 9.47747V12.325C26.4491 12.3719 26.4376 12.418 26.4162 12.4597C26.3948 12.5015 26.364 12.5377 26.3263 12.5657L24.291 14.0569V17.3917C24.291 20.4095 23.1498 22.0886 19.2557 22.5701V30.7074C19.2561 30.7496 19.2473 30.7914 19.2301 30.8299C19.2128 30.8684 19.1874 30.9027 19.1557 30.9305C18.5615 31.4378 17.8022 31.7112 17.0204 31.6996C16.2408 31.6938 15.4861 31.4248 14.8792 30.9364C14.8449 30.9088 14.817 30.8739 14.7977 30.8344C14.7784 30.7948 14.7681 30.7514 14.7675 30.7074V22.5877C10.8851 22.0886 9.73216 20.4095 9.73216 17.4093V14.0628L7.67333 12.5657C7.63537 12.5393 7.60433 12.5042 7.58283 12.4633C7.56133 12.4224 7.55001 12.377 7.5498 12.3308V9.48334C7.55055 9.41675 7.57351 9.35231 7.61506 9.30021C7.65661 9.24811 7.71437 9.21132 7.77922 9.19565C9.02148 8.92636 10.2786 8.73032 11.5439 8.60854V3.21298C11.5299 2.80525 11.6459 2.40359 11.8753 2.06593C12.1047 1.72827 12.4357 1.47205 12.8204 1.33423C12.9989 1.28625 13.1826 1.26061 13.3675 1.2579C13.5789 1.23466 13.7928 1.26286 13.991 1.3401C14.3719 1.47924 14.6986 1.7357 14.9238 2.07238C15.149 2.40906 15.2611 2.80851 15.2439 3.21298V8.32673H15.9675H17.0263C17.8851 8.32673 18.3557 8.32673 18.791 8.32673V3.21298C18.7782 2.8031 18.8968 2.39984 19.1295 2.06191C19.3623 1.72399 19.6971 1.46905 20.0851 1.33423C20.2636 1.28625 20.4473 1.26061 20.6322 1.2579C20.8436 1.23466 21.0575 1.26286 21.2557 1.3401C21.6399 1.47626 21.9704 1.73144 22.199 2.06838C22.4276 2.40532 22.5422 2.80638 22.5263 3.21298V8.60267C23.7697 8.71614 25.004 8.91426 26.2204 9.19565Z" fill="#007ACD" stroke="#007ACD" stroke-width="0.5"/>
</svg>
