<svg width="34" height="34" viewBox="0 0 34 34" fill="none" xmlns="http://www.w3.org/2000/svg">
<g clip-path="url(#clip0_476_1363)">
<path d="M33.2674 16.6964C32.9539 16.3911 32.5411 16.2061 32.1026 16.1744C31.6642 16.1427 31.2286 16.2665 30.8738 16.5236L29.3089 17.6906C29.1458 16.145 28.4279 14.709 27.286 13.6439C27.0624 13.4278 26.8552 13.2441 26.6589 13.0658C27.0049 12.4135 27.207 11.6957 27.2517 10.9601C27.2964 10.2246 27.1828 9.48798 26.9183 8.79924C26.6538 8.11051 26.2445 7.48538 25.7176 6.96533C25.1907 6.44527 24.5582 6.04219 23.8621 5.7828C23.166 5.52342 22.4222 5.41368 21.6801 5.46086C20.9379 5.50803 20.2143 5.71105 19.5574 6.05644C18.9004 6.40182 18.3251 6.88169 17.8696 7.46419C17.4141 8.04669 17.0888 8.71851 16.9153 9.43509H16.6481C15.2641 9.42118 13.8853 9.60311 12.5532 9.97537C12.5189 9.9853 12.4868 10.0018 12.4589 10.0241C12.431 10.0463 12.4077 10.0737 12.3905 10.1048C12.3733 10.1359 12.3625 10.1701 12.3586 10.2053C12.3547 10.2406 12.3578 10.2763 12.3678 10.3103C12.3893 10.3783 12.4365 10.4354 12.4995 10.4697C12.5626 10.5039 12.6365 10.5126 12.7059 10.494C13.9875 10.1296 15.3148 9.94768 16.6481 9.95375H16.8226C16.8005 10.1475 16.7896 10.3423 16.7899 10.5373C16.7891 11.6437 17.1448 12.7215 17.805 13.6138C18.4652 14.506 19.3956 15.1663 20.4607 15.4984C21.5258 15.8305 22.6701 15.8172 23.7271 15.4603C24.784 15.1034 25.6984 14.4217 26.3372 13.5142L26.8825 14.0221C27.486 14.588 27.9655 15.271 28.291 16.0286C28.6165 16.7861 28.7811 17.602 28.7745 18.4253C28.7831 19.464 28.5694 20.4927 28.1474 21.4436C27.7254 22.3944 27.1047 23.2458 26.3263 23.9416C26.2931 23.9736 26.267 24.0123 26.25 24.0551L26.1846 24.2604C26.1082 24.4819 26.0646 24.6007 25.9992 24.8006L25.4539 26.4593C25.2467 27.0806 25.0668 27.6047 24.9359 28.0045H23.2402L22.6077 26.1243C22.5961 26.0899 22.5776 26.0581 22.5534 26.0309C22.5291 26.0037 22.4995 25.9816 22.4664 25.9659C22.4334 25.9503 22.3974 25.9414 22.3608 25.9399C22.3242 25.9383 22.2876 25.9441 22.2533 25.9568C20.7239 26.4856 19.1054 26.715 17.4878 26.6322C15.6481 26.6479 13.8144 26.4208 12.0352 25.9568C12.0009 25.945 11.9645 25.9402 11.9282 25.9425C11.892 25.9448 11.8565 25.9543 11.824 25.9705C11.7915 25.9866 11.7626 26.009 11.7389 26.0363C11.7153 26.0637 11.6974 26.0954 11.6863 26.1297C11.6739 26.1813 11.6575 26.2319 11.6372 26.281L11.4954 26.7078C11.3646 27.1076 11.2228 27.5453 11.0701 28.0045H9.43439C9.43439 27.891 9.43439 27.7776 9.39622 27.6587C9.32907 27.1134 9.23077 26.5722 9.10178 26.0379C9.02545 25.7083 8.94366 25.395 8.85642 25.1086C8.80734 24.9357 8.76918 24.8115 8.74737 24.7412C8.72741 24.6898 8.69343 24.6449 8.64922 24.6115C8.77463 24.7034 6.59907 23.3365 5.49765 22.5801C5.1705 22.3604 4.86516 22.1443 4.58163 21.9318C3.79202 21.4363 3.09474 20.8093 2.52057 20.0786C2.10632 19.3066 1.86458 18.4553 1.81174 17.5825C1.76267 16.8423 1.92079 16.4587 2.14434 16.4587C3.0189 16.4937 3.89088 16.3426 4.70158 16.0157C4.73707 15.9988 4.76855 15.9747 4.79392 15.9449C4.8193 15.9151 4.83801 15.8803 4.8488 15.8428C5.08324 14.8446 5.68125 13.9674 6.52818 13.3791C6.58824 13.3413 6.63099 13.2817 6.64729 13.213C6.66359 13.1444 6.65216 13.0721 6.61542 13.0117L6.39187 12.6768L6.15741 12.2878C6.03746 12.0879 5.93386 11.9042 5.83571 11.7475C5.31772 10.8074 5.10507 10.1537 5.24138 9.87271C5.31772 9.71063 6.41368 9.62959 7.54236 9.87271C8.93046 10.1029 10.175 10.8559 11.0156 11.9744C11.0582 12.0268 11.1191 12.0616 11.1862 12.0719C11.2533 12.0822 11.3219 12.0673 11.3785 12.0301C11.4352 11.9929 11.4757 11.9362 11.4923 11.8709C11.5089 11.8056 11.5003 11.7366 11.4682 11.6772C9.97419 9.42968 5.31772 8.43557 4.7452 9.6458C4.50529 10.1591 4.7452 10.9101 5.35589 12.0122C5.45949 12.1905 5.56308 12.3796 5.68849 12.5849L5.9284 12.9739C5.95459 13.0259 5.98372 13.0764 6.01565 13.1252C5.21496 13.7601 4.64149 14.6333 4.37988 15.6159C3.66378 15.8609 2.906 15.9637 2.1498 15.9184C1.47913 15.9184 1.20651 16.6154 1.25558 17.6311C1.318 18.5757 1.5819 19.4964 2.02984 20.3325C2.62682 21.1409 3.36557 21.8363 4.21086 22.3856C4.49984 22.5963 4.81063 22.8178 5.14324 23.0393C6.10289 23.7039 7.86951 24.8006 8.21302 25.0222C8.21302 25.087 8.26209 25.1734 8.28935 25.2761C8.37114 25.557 8.45293 25.8596 8.52926 26.1784C8.65108 26.6881 8.74572 27.2039 8.8128 27.7236C8.83929 27.9135 8.85567 28.1046 8.86187 28.2963C8.86729 28.3646 8.89822 28.4285 8.94864 28.4754C8.99905 28.5224 9.06532 28.5491 9.1345 28.5502H11.2446C11.3021 28.5501 11.358 28.5324 11.4049 28.4995C11.4518 28.4666 11.4872 28.4201 11.5063 28.3665L11.9916 26.8807L12.1007 26.5566C13.8611 26.9766 15.6661 27.1852 17.4769 27.1779C19.0657 27.2467 20.6544 27.0401 22.1715 26.5674L22.7767 28.3665C22.7942 28.4202 22.8284 28.4669 22.8745 28.5C22.9206 28.533 22.9761 28.5506 23.033 28.5502H25.1159C25.1728 28.5506 25.2283 28.533 25.2744 28.5C25.3205 28.4669 25.3547 28.4202 25.3721 28.3665C25.5139 27.9505 25.7102 27.3562 25.961 26.6052L26.5063 24.9843C26.5717 24.7898 26.6153 24.671 26.6862 24.4441C26.6862 24.3738 26.7244 24.3306 26.7353 24.3036C27.5533 23.5573 28.2047 22.6498 28.6479 21.6394C29.0911 20.629 29.3163 19.5379 29.3089 18.4361C29.3089 18.3767 29.3089 18.3119 29.3089 18.2525C29.3708 18.2548 29.4318 18.2378 29.4834 18.2038L31.1627 16.9504C31.4253 16.7378 31.7611 16.635 32.0989 16.6637C32.4367 16.6924 32.7499 16.8505 32.972 17.1043C33.1941 17.3582 33.3076 17.6878 33.2884 18.0232C33.2693 18.3586 33.119 18.6734 32.8694 18.9008L32.5968 19.1709C32.5713 19.1961 32.5512 19.226 32.5374 19.2589C32.5237 19.2918 32.5166 19.3271 32.5166 19.3627C32.5166 19.3983 32.5237 19.4336 32.5374 19.4665C32.5512 19.4994 32.5713 19.5293 32.5968 19.5545C32.6222 19.5797 32.6524 19.5997 32.6856 19.6133C32.7188 19.627 32.7544 19.634 32.7903 19.634C32.8263 19.634 32.8619 19.627 32.8951 19.6133C32.9283 19.5997 32.9585 19.5797 32.9839 19.5545L33.2565 19.2844C33.6026 18.9417 33.7979 18.4774 33.8 17.9926C33.802 17.5079 33.6106 17.042 33.2674 16.6964ZM22.0352 15.2107C21.0035 15.2108 20.0003 14.875 19.1801 14.2548C18.3599 13.6346 17.7681 12.7646 17.4958 11.7785C17.2236 10.7924 17.2859 9.74501 17.6733 8.79748C18.0606 7.84996 18.7515 7.05484 19.6396 6.53453C20.5277 6.01421 21.5638 5.79754 22.5884 5.91785C23.6129 6.03817 24.5692 6.4888 25.3099 7.2004C26.0507 7.912 26.5349 8.84511 26.688 9.8561C26.8411 10.8671 26.6546 11.8999 26.1573 12.7956C26.1015 12.8051 26.0501 12.8315 26.0101 12.8713C25.9815 12.9063 25.9616 12.9476 25.9521 12.9918C25.9426 13.0359 25.9438 13.0816 25.9556 13.1252C25.5279 13.7677 24.9456 14.2946 24.2613 14.6587C23.5769 15.0227 22.8119 15.2124 22.0352 15.2107Z" fill="#007ACD" stroke="#007ACD" stroke-width="0.5"/>
<path d="M22.645 8.10244H24.0856C24.1558 8.10244 24.2232 8.07333 24.2728 8.02151C24.3225 7.96969 24.3504 7.89941 24.3504 7.82613C24.349 7.75329 24.3207 7.68383 24.2713 7.63231C24.222 7.58079 24.1554 7.55123 24.0856 7.54981H22.645C22.4211 7.54908 22.1992 7.59465 21.9923 7.68388C21.7854 7.77311 21.5974 7.90425 21.4394 8.06971C21.2813 8.23516 21.1562 8.43167 21.0713 8.64786C20.9864 8.86405 20.9434 9.09565 20.9448 9.32928V9.48401H20.4152C20.345 9.48401 20.2776 9.51312 20.228 9.56494C20.1783 9.61676 20.1504 9.68704 20.1504 9.76033C20.1504 9.83361 20.1783 9.90389 20.228 9.95571C20.2776 10.0075 20.345 10.0366 20.4152 10.0366H20.9448V10.5893H20.4152C20.345 10.5893 20.2776 10.6184 20.228 10.6702C20.1783 10.722 20.1504 10.7923 20.1504 10.8656C20.1504 10.9389 20.1783 11.0091 20.228 11.061C20.2776 11.1128 20.345 11.1419 20.4152 11.1419H20.9448C20.9719 11.5924 21.163 12.0152 21.4791 12.3234C21.7952 12.6316 22.2123 12.8021 22.645 12.7998H24.0856C24.1558 12.7998 24.2232 12.7707 24.2728 12.7189C24.3225 12.667 24.3504 12.5968 24.3504 12.5235C24.349 12.4506 24.3207 12.3812 24.2713 12.3296C24.222 12.2781 24.1554 12.2486 24.0856 12.2472H22.645C22.3534 12.2484 22.0721 12.1356 21.8563 11.931C21.6406 11.7264 21.5063 11.4448 21.4798 11.1419H22.8727C22.9429 11.1419 23.0103 11.1128 23.06 11.061C23.1096 11.0091 23.1375 10.9389 23.1375 10.8656C23.1362 10.7927 23.1078 10.7233 23.0585 10.6718C23.0091 10.6202 22.9425 10.5907 22.8727 10.5893H21.4745V10.0366H22.8727C22.9429 10.0366 23.0103 10.0075 23.06 9.95571C23.1096 9.90389 23.1375 9.83361 23.1375 9.76033C23.1362 9.68749 23.1078 9.61802 23.0585 9.56651C23.0091 9.51499 22.9425 9.48543 22.8727 9.48401H21.4745V9.32928C21.4738 9.16843 21.5035 9.00902 21.5621 8.86021C21.6206 8.71139 21.7067 8.5761 21.8154 8.46211C21.9242 8.34811 22.0535 8.25766 22.1958 8.19593C22.3382 8.13421 22.4908 8.10244 22.645 8.10244Z" fill="#007ACD"/>
<path d="M7.54982 16.4754C7.54982 16.7872 7.64236 17.092 7.81572 17.3511C7.98907 17.6103 8.23544 17.8121 8.52362 17.9311C8.8118 18.0501 9.12881 18.0809 9.43451 18.0196C9.74021 17.9583 10.0208 17.8077 10.2408 17.5867C10.4608 17.3658 10.6103 17.0846 10.6703 16.7786C10.7304 16.4727 10.6982 16.1558 10.578 15.8681C10.4578 15.5804 10.2549 15.3349 9.99503 15.1626C9.73516 14.9904 9.43 14.8991 9.11822 14.9004C8.9117 14.9004 8.70721 14.9412 8.51649 15.0204C8.32578 15.0997 8.15258 15.2158 8.00686 15.3621C7.86113 15.5084 7.74574 15.6821 7.66731 15.8732C7.58888 16.0642 7.54895 16.2689 7.54982 16.4754ZM10.0342 16.4754C10.0342 16.6566 9.9805 16.8337 9.87985 16.9843C9.7792 17.1349 9.63614 17.2524 9.46876 17.3217C9.30138 17.391 9.11721 17.4092 8.93952 17.3738C8.76183 17.3385 8.59862 17.2512 8.47051 17.1231C8.34241 16.995 8.25517 16.8318 8.21982 16.6541C8.18448 16.4764 8.20262 16.2922 8.27195 16.1249C8.34128 15.9575 8.45868 15.8144 8.60932 15.7138C8.75996 15.6131 8.93705 15.5594 9.11822 15.5594C9.23876 15.5585 9.35826 15.5816 9.46979 15.6273C9.58132 15.6731 9.68265 15.7405 9.76789 15.8257C9.85312 15.911 9.92056 16.0123 9.96628 16.1238C10.012 16.2354 10.0351 16.3549 10.0342 16.4754Z" fill="#007ACD" stroke="#007ACD" stroke-width="0.5"/>
</g>
<defs>
<clipPath id="clip0_476_1363">
<rect width="33.6" height="33.6" fill="white" transform="translate(0.200195 0.200195)"/>
</clipPath>
</defs>
</svg>
