<svg width="18" height="26" viewBox="0 0 18 26" fill="none" xmlns="http://www.w3.org/2000/svg">
<path d="M9.36415 13.1478L1.79245 20.7146C1.58373 20.9296 1.46699 21.2174 1.46699 21.517C1.46699 21.8167 1.58373 22.1045 1.79245 22.3195L4.02261 24.5989C4.23901 24.8068 4.52745 24.9229 4.82753 24.9229C5.12761 24.9229 5.41605 24.8068 5.63245 24.5989L16.4337 13.7681C16.6436 13.5537 16.7611 13.2657 16.7611 12.9657C16.7611 12.6656 16.6436 12.3776 16.4337 12.1632L14.1937 9.92811L5.63245 1.38165C5.41747 1.17293 5.12963 1.05619 4.82999 1.05619C4.53036 1.05619 4.24251 1.17293 4.02753 1.38165L1.78753 3.61673C1.57258 3.83342 1.45196 4.12627 1.45196 4.4315C1.45196 4.73672 1.57258 5.02957 1.78753 5.24627L9.36415 12.7983C9.38722 12.8211 9.40553 12.8484 9.41803 12.8784C9.43052 12.9084 9.43696 12.9405 9.43696 12.973C9.43696 13.0055 9.43052 13.0377 9.41803 13.0677C9.40553 13.0977 9.38722 13.1249 9.36415 13.1478ZM1.43799 5.5958C1.13015 5.28751 0.957239 4.86964 0.957239 4.43396C0.957239 3.99828 1.13015 3.58041 1.43799 3.27211L3.68292 1.03211C3.98932 0.732028 4.40112 0.563965 4.82999 0.563965C5.25887 0.563965 5.67066 0.732028 5.97707 1.03211L14.5432 9.59334L16.7881 11.8333C17.0862 12.1418 17.2529 12.5539 17.2529 12.9829C17.2529 13.4118 17.0862 13.824 16.7881 14.1324L5.95738 24.9632C5.64954 25.2624 5.23715 25.4298 4.80784 25.4298C4.37853 25.4298 3.96614 25.2624 3.6583 24.9632L1.4183 22.6789C1.11906 22.371 0.95166 21.9587 0.95166 21.5293C0.95166 21.1 1.11906 20.6876 1.4183 20.3798L8.80291 12.9952L1.43799 5.5958Z" fill="#007ACD"/>
</svg>
