<svg width="33" height="32" viewBox="0 0 33 32" fill="none" xmlns="http://www.w3.org/2000/svg">
<circle cx="16.5" cy="16" r="15.75" fill="white" stroke="#007ACD" stroke-width="0.5"/>
<path d="M22.4076 11.1415C21.6016 10.9564 20.7841 10.8257 19.9605 10.7501C19.9113 10.7462 19.8653 10.7238 19.8319 10.6876C19.7984 10.6513 19.7799 10.6037 19.7801 10.5544V6.80866C19.7878 6.62215 19.7357 6.43807 19.6313 6.28319C19.5269 6.12831 19.3757 6.01073 19.1997 5.94756C19.1188 5.91568 19.0314 5.9036 18.9448 5.91233C18.8538 5.91674 18.7633 5.92852 18.6742 5.94756C18.5007 6.01391 18.352 6.13237 18.2488 6.2866C18.1455 6.44083 18.0928 6.62323 18.0977 6.80866V10.4135C18.0978 10.4402 18.0924 10.4667 18.0818 10.4912C18.0712 10.5158 18.0557 10.5379 18.0362 10.5562C18.0167 10.5746 17.9937 10.5887 17.9686 10.5978C17.9434 10.607 17.9166 10.6108 17.8899 10.6092C17.5213 10.5897 17.2154 10.5857 16.5174 10.5857H15.8193H15.133C15.081 10.5857 15.0312 10.5651 14.9944 10.5284C14.9576 10.4917 14.937 10.4419 14.937 10.39V6.80866C14.9447 6.62215 14.8925 6.43807 14.7881 6.28319C14.6837 6.12831 14.5326 6.01073 14.3566 5.94756C14.2756 5.91568 14.1882 5.9036 14.1017 5.91233C14.0107 5.91674 13.9202 5.92852 13.8311 5.94756C13.6575 6.01391 13.5089 6.13237 13.4056 6.2866C13.3024 6.44083 13.2496 6.62323 13.2546 6.80866V10.5779C13.2538 10.6265 13.2349 10.6731 13.2015 10.7086C13.1682 10.744 13.1228 10.7658 13.0742 10.7697C12.2397 10.8511 11.4108 10.9818 10.5919 11.1611V12.8011L11.9683 13.7992C11.9932 13.8178 12.0133 13.8421 12.027 13.87C12.0406 13.8979 12.0474 13.9286 12.0468 13.9597V16.2807C12.0468 18.1399 12.7213 19.0832 15.2311 19.3611C15.2786 19.3677 15.3221 19.391 15.3538 19.427C15.3855 19.4629 15.4031 19.509 15.4036 19.5568V25.0365C15.7201 25.2776 16.1038 25.4144 16.5017 25.4279C16.8964 25.4325 17.2809 25.3027 17.5919 25.06V19.5372C17.5926 19.4892 17.611 19.4432 17.6435 19.4078C17.676 19.3724 17.7205 19.3502 17.7683 19.3454C20.2821 19.0636 20.9487 18.136 20.9487 16.2612V13.9401C20.9492 13.9088 20.9568 13.8781 20.9711 13.8503C20.9854 13.8224 21.0059 13.7983 21.0311 13.7796L22.4076 12.7855V11.1415ZM22.6468 10.7971C22.69 10.8061 22.7288 10.8297 22.7567 10.8639C22.7845 10.8981 22.7997 10.9409 22.7997 10.985V12.8833C22.7993 12.9146 22.7916 12.9453 22.7773 12.9731C22.763 13.001 22.7425 13.0251 22.7174 13.0438L21.3605 14.038V16.2612C21.3605 18.273 20.5997 19.3924 18.0036 19.7134V25.1383C18.0039 25.1664 17.998 25.1942 17.9865 25.2199C17.975 25.2456 17.9581 25.2685 17.937 25.287C17.5408 25.6252 17.0347 25.8075 16.5134 25.7998C15.9937 25.7959 15.4906 25.6165 15.086 25.2909C15.0631 25.2725 15.0445 25.2493 15.0317 25.2229C15.0188 25.1965 15.0119 25.1676 15.0115 25.1383V19.7251C12.4232 19.3924 11.6546 18.273 11.6546 16.2729V14.0419L10.2821 13.0438C10.2568 13.0262 10.2361 13.0028 10.2217 12.9755C10.2074 12.9483 10.1998 12.918 10.1997 12.8872V10.9889C10.2002 10.9445 10.2155 10.9015 10.2432 10.8668C10.2709 10.8321 10.3094 10.8075 10.3526 10.7971C11.1808 10.6176 12.0189 10.4869 12.8625 10.4057V6.80866C12.8531 6.53683 12.9304 6.26906 13.0834 6.04395C13.2363 5.81884 13.4569 5.64803 13.7134 5.55615C13.8324 5.52417 13.9549 5.50707 14.0781 5.50527C14.2191 5.48978 14.3617 5.50858 14.4938 5.56006C14.7478 5.65283 14.9655 5.8238 15.1157 6.04825C15.2659 6.27271 15.3406 6.53901 15.3291 6.80866V10.2178H15.8115H16.5174C17.0899 10.2178 17.4036 10.2178 17.6938 10.2178V6.80866C17.6853 6.5354 17.7644 6.26656 17.9195 6.04128C18.0747 5.81599 18.2979 5.64604 18.5566 5.55615C18.6756 5.52417 18.7981 5.50707 18.9213 5.50527C19.0622 5.48978 19.2049 5.50858 19.337 5.56006C19.5931 5.65084 19.8134 5.82096 19.9658 6.04559C20.1182 6.27022 20.1947 6.53759 20.184 6.80866V10.4018C21.013 10.4774 21.8358 10.6095 22.6468 10.7971Z" fill="#007ACD" stroke="#007ACD" stroke-width="0.5"/>
</svg>
