<svg width="40" height="40" viewBox="0 0 40 40" fill="none" xmlns="http://www.w3.org/2000/svg">
<g filter="url(#filter0_d_38_799)">
<circle cx="20" cy="20" r="16" fill="white"/>
</g>
<path d="M27.3427 16.0089L23.9909 12.6572C23.8934 12.5597 23.7777 12.4823 23.6503 12.4295C23.5229 12.3768 23.3863 12.3496 23.2484 12.3496C23.1106 12.3496 22.974 12.3768 22.8466 12.4295C22.7192 12.4823 22.6035 12.5597 22.5059 12.6572L13.2577 21.9062C13.16 22.0035 13.0825 22.1193 13.0298 22.2467C12.977 22.3741 12.9499 22.5108 12.9502 22.6487V26.0004C12.9502 26.2789 13.0608 26.546 13.2577 26.7429C13.4546 26.9398 13.7217 27.0504 14.0002 27.0504H17.3519C17.4899 27.0507 17.6265 27.0237 17.7539 26.9709C17.8814 26.9181 17.9971 26.8406 18.0944 26.7429L27.3427 17.4939C27.4402 17.3964 27.5176 17.2807 27.5703 17.1533C27.6231 17.0259 27.6503 16.8893 27.6503 16.7514C27.6503 16.6135 27.6231 16.477 27.5703 16.3496C27.5176 16.2222 27.4402 16.1064 27.3427 16.0089ZM17.4577 26.1062C17.4297 26.1344 17.3917 26.1503 17.3519 26.1504H14.0002C13.9604 26.1504 13.9223 26.1346 13.8941 26.1065C13.866 26.0784 13.8502 26.0402 13.8502 26.0004V22.6487C13.8504 22.609 13.8663 22.5709 13.8944 22.5429L20.6002 15.8364L24.1634 19.4004L17.4577 26.1062ZM26.7059 16.8579L24.8002 18.7637L21.2369 15.2004L23.1427 13.2939C23.1566 13.28 23.1732 13.2689 23.1914 13.2614C23.2096 13.2538 23.2291 13.2499 23.2488 13.2499C23.2685 13.2499 23.2881 13.2538 23.3063 13.2614C23.3245 13.2689 23.341 13.28 23.3549 13.2939L26.7059 16.6457C26.7199 16.6596 26.731 16.6762 26.7385 16.6944C26.7461 16.7126 26.7499 16.7321 26.7499 16.7518C26.7499 16.7715 26.7461 16.791 26.7385 16.8093C26.731 16.8275 26.7199 16.844 26.7059 16.8579Z" fill="#435C6E" stroke="#435C6E" stroke-width="0.5"/>
<defs>
<filter id="filter0_d_38_799" x="0" y="0" width="40" height="40" filterUnits="userSpaceOnUse" color-interpolation-filters="sRGB">
<feFlood flood-opacity="0" result="BackgroundImageFix"/>
<feColorMatrix in="SourceAlpha" type="matrix" values="0 0 0 0 0 0 0 0 0 0 0 0 0 0 0 0 0 0 127 0" result="hardAlpha"/>
<feOffset/>
<feGaussianBlur stdDeviation="2"/>
<feComposite in2="hardAlpha" operator="out"/>
<feColorMatrix type="matrix" values="0 0 0 0 0 0 0 0 0 0 0 0 0 0 0 0 0 0 0.2 0"/>
<feBlend mode="normal" in2="BackgroundImageFix" result="effect1_dropShadow_38_799"/>
<feBlend mode="normal" in="SourceGraphic" in2="effect1_dropShadow_38_799" result="shape"/>
</filter>
</defs>
</svg>
