<svg width="28" height="25" viewBox="0 0 28 25" fill="none" xmlns="http://www.w3.org/2000/svg">
<path d="M14.1766 21.0434L14.3055 20.9145C17.4725 18.047 20.118 15.6497 21.9698 13.4859C23.82 11.3239 24.9165 9.35228 24.9165 7.33333C24.9165 4.5286 22.8046 2.41667 19.9998 2.41667C17.9094 2.41667 15.8702 3.73124 15.0726 5.56333H12.9271C12.1294 3.73124 10.0903 2.41667 7.99984 2.41667C5.1951 2.41667 3.08317 4.5286 3.08317 7.33333C3.08317 9.35225 4.17962 11.3239 6.02816 13.4858C7.87787 15.6491 10.5194 18.0459 13.6788 20.9127L13.685 20.9183L13.6852 20.9185L13.8317 21.0517L14.0081 21.212L14.1766 21.0434ZM13.8101 2.93615L13.9998 3.15719L14.1895 2.93615C15.5971 1.29611 17.7554 0.25 19.9998 0.25C23.9687 0.25 27.0832 3.3517 27.0832 7.33333C27.0832 9.76448 25.9891 11.9961 24.0146 14.4118C22.0374 16.8308 19.2035 19.4037 15.7652 22.5215L15.7649 22.5218L13.9998 24.1286L12.2348 22.5218L12.2344 22.5215C8.79619 19.4037 5.96231 16.8308 3.98507 14.4118C2.01058 11.9961 0.916504 9.76448 0.916504 7.33333C0.916504 3.3517 4.03094 0.25 7.99984 0.25C10.2443 0.25 12.4025 1.29611 13.8101 2.93615Z" fill="#007ACD" stroke="white" stroke-width="0.5"/>
</svg>
