<svg width="25" height="24" viewBox="0 0 25 24" fill="none" xmlns="http://www.w3.org/2000/svg">
<path d="M24.25 9C24.25 9.19891 24.171 9.38968 24.0303 9.53033C23.8897 9.67098 23.6989 9.75 23.5 9.75C23.3011 9.75 23.1103 9.67098 22.9697 9.53033C22.829 9.38968 22.75 9.19891 22.75 9V2.81125L14.0312 11.53C13.8891 11.6625 13.701 11.7346 13.5067 11.7312C13.3124 11.7277 13.127 11.649 12.9896 11.5116C12.8522 11.3742 12.7735 11.1888 12.7701 10.9945C12.7666 10.8002 12.8388 10.6122 12.9713 10.47L21.6887 1.75H15.5C15.3011 1.75 15.1103 1.67098 14.9697 1.53033C14.829 1.38968 14.75 1.19891 14.75 1C14.75 0.801088 14.829 0.610322 14.9697 0.46967C15.1103 0.329018 15.3011 0.25 15.5 0.25H23.5C23.6989 0.25 23.8897 0.329018 24.0303 0.46967C24.171 0.610322 24.25 0.801088 24.25 1V9ZM19.5 12.25C19.3011 12.25 19.1103 12.329 18.9697 12.4697C18.829 12.6103 18.75 12.8011 18.75 13V22C18.75 22.0663 18.7237 22.1299 18.6768 22.1768C18.6299 22.2237 18.5663 22.25 18.5 22.25H2.5C2.4337 22.25 2.37011 22.2237 2.32322 22.1768C2.27634 22.1299 2.25 22.0663 2.25 22V6C2.25 5.9337 2.27634 5.87011 2.32322 5.82322C2.37011 5.77634 2.4337 5.75 2.5 5.75H11.5C11.6989 5.75 11.8897 5.67098 12.0303 5.53033C12.171 5.38968 12.25 5.19891 12.25 5C12.25 4.80109 12.171 4.61032 12.0303 4.46967C11.8897 4.32902 11.6989 4.25 11.5 4.25H2.5C2.03587 4.25 1.59075 4.43437 1.26256 4.76256C0.934375 5.09075 0.75 5.53587 0.75 6V22C0.75 22.4641 0.934375 22.9092 1.26256 23.2374C1.59075 23.5656 2.03587 23.75 2.5 23.75H18.5C18.9641 23.75 19.4092 23.5656 19.7374 23.2374C20.0656 22.9092 20.25 22.4641 20.25 22V13C20.25 12.8011 20.171 12.6103 20.0303 12.4697C19.8897 12.329 19.6989 12.25 19.5 12.25Z" fill="white"/>
</svg>
