<svg width="18" height="20" viewBox="0 0 18 20" fill="none" xmlns="http://www.w3.org/2000/svg">
<path d="M12.6996 6.8V7.3H13.1996H15.9996C16.2383 7.3 16.4672 7.39482 16.636 7.5636C16.8048 7.73239 16.8996 7.96131 16.8996 8.2V18C16.8996 18.2387 16.8048 18.4676 16.636 18.6364C16.4672 18.8052 16.2383 18.9 15.9996 18.9H1.99961C1.76091 18.9 1.532 18.8052 1.36321 18.6364C1.19443 18.4676 1.09961 18.2387 1.09961 18V8.2C1.09961 7.96131 1.19443 7.73239 1.36321 7.5636C1.532 7.39482 1.76091 7.3 1.99961 7.3H4.79961H5.29961V6.8V4.7C5.29961 3.7187 5.68943 2.77759 6.38332 2.0837C7.0772 1.38982 8.01831 1 8.99961 1C9.98091 1 10.922 1.38982 11.6159 2.0837C12.3098 2.77759 12.6996 3.7187 12.6996 4.7V6.8ZM11.7996 7.3H12.2996V6.8V4.7C12.2996 3.82479 11.9519 2.98542 11.3331 2.36655C10.7142 1.74768 9.87483 1.4 8.99961 1.4C8.1244 1.4 7.28503 1.74768 6.66616 2.36655C6.04729 2.98542 5.69961 3.82479 5.69961 4.7V6.8V7.3H6.19961H11.7996ZM15.9996 18.5H16.4996V18V8.2V7.7H15.9996H1.99961H1.49961V8.2V18V18.5H1.99961H15.9996Z" fill="#007ACD" stroke="#007ACD"/>
</svg>
