<svg width="24" height="24" viewBox="0 0 24 24" fill="none" xmlns="http://www.w3.org/2000/svg">
<g clip-path="url(#clip0_815_4189)">
<path d="M22.8449 11.7973C22.6359 11.5937 22.3607 11.4704 22.0684 11.4493C21.7761 11.4282 21.4858 11.5107 21.2492 11.682L20.2059 12.4601C20.0972 11.4297 19.6186 10.4723 18.8573 9.76225C18.7083 9.61818 18.5702 9.49571 18.4393 9.37685C18.67 8.94199 18.8047 8.46349 18.8345 7.9731C18.8643 7.48272 18.7885 6.99166 18.6122 6.5325C18.4359 6.07335 18.163 5.6566 17.8117 5.30989C17.4605 4.96319 17.0388 4.69446 16.5748 4.52154C16.1107 4.34862 15.6148 4.27546 15.12 4.30691C14.6253 4.33836 14.1429 4.47371 13.7049 4.70397C13.267 4.93422 12.8834 5.25413 12.5797 5.64247C12.2761 6.0308 12.0592 6.47868 11.9435 6.9564H11.7654C10.8428 6.94713 9.92352 7.06841 9.03549 7.31659C9.01258 7.32321 8.99121 7.33424 8.97259 7.34904C8.95398 7.36385 8.9385 7.38214 8.92702 7.40288C8.91554 7.42362 8.9083 7.44639 8.90571 7.4699C8.90311 7.49341 8.90522 7.5172 8.9119 7.5399C8.92621 7.58522 8.95767 7.62329 8.99969 7.64612C9.04171 7.66895 9.09102 7.67477 9.13727 7.66236C9.99164 7.41941 10.8765 7.29813 11.7654 7.30218H11.8817C11.867 7.43133 11.8597 7.56121 11.8599 7.69118C11.8594 8.4288 12.0965 9.14732 12.5367 9.74218C12.9768 10.337 13.5971 10.7772 14.3071 10.9986C15.0172 11.22 15.7801 11.2111 16.4847 10.9732C17.1893 10.7353 17.7989 10.2808 18.2248 9.67581L18.5883 10.0144C18.9907 10.3917 19.3103 10.847 19.5273 11.3521C19.7443 11.8571 19.8541 12.401 19.8497 12.9499C19.8554 13.6424 19.7129 14.3282 19.4316 14.9621C19.1503 15.596 18.7365 16.1636 18.2176 16.6274C18.1954 16.6488 18.178 16.6745 18.1667 16.703L18.1231 16.8399C18.0722 16.9876 18.0431 17.0668 17.9995 17.2001L17.636 18.3059C17.4978 18.7201 17.3779 19.0695 17.2906 19.336H16.1601L15.7385 18.0826C15.7307 18.0596 15.7184 18.0384 15.7022 18.0203C15.6861 18.0021 15.6663 17.9874 15.6443 17.977C15.6222 17.9665 15.5983 17.9606 15.5739 17.9596C15.5495 17.9586 15.5251 17.9624 15.5022 17.9709C14.4826 18.3234 13.4036 18.4763 12.3252 18.4211C11.0987 18.4316 9.87629 18.2802 8.69016 17.9709C8.66727 17.963 8.64301 17.9598 8.61883 17.9613C8.59464 17.9629 8.57102 17.9692 8.54934 17.98C8.52767 17.9907 8.50838 18.0056 8.49261 18.0239C8.47684 18.0421 8.46491 18.0633 8.45752 18.0862C8.44928 18.1206 8.43834 18.1543 8.42481 18.187L8.3303 18.4716C8.24306 18.7381 8.14855 19.0299 8.04676 19.336H6.95626C6.95626 19.2604 6.95626 19.1847 6.93081 19.1055C6.88605 18.7419 6.82051 18.3812 6.73452 18.0249C6.68363 17.8052 6.62911 17.5963 6.57094 17.4054C6.53823 17.2902 6.51278 17.2073 6.49824 17.1605C6.48494 17.1262 6.46229 17.0963 6.43281 17.074C6.51642 17.1353 5.06604 16.224 4.33177 15.7197C4.11367 15.5733 3.91011 15.4292 3.72109 15.2875C3.19468 14.9572 2.72983 14.5392 2.34705 14.0521C2.07088 13.5374 1.90972 12.9699 1.87449 12.388C1.84178 11.8946 1.94719 11.6388 2.09623 11.6388C2.67927 11.6621 3.26059 11.5614 3.80106 11.3435C3.82471 11.3322 3.8457 11.3162 3.86262 11.2963C3.87953 11.2764 3.89201 11.2532 3.8992 11.2282C4.05549 10.5628 4.45417 9.97791 5.01879 9.58576C5.05883 9.56054 5.08733 9.5208 5.0982 9.47503C5.10906 9.42927 5.10144 9.3811 5.07695 9.34084L4.92791 9.11752L4.77161 8.85818C4.69164 8.72492 4.62257 8.60245 4.55714 8.498C4.21181 7.87127 4.07005 7.43545 4.16092 7.24815C4.21181 7.14009 4.94245 7.08607 5.6949 7.24815C6.62031 7.40158 7.45 7.90363 8.01041 8.64928C8.03882 8.68422 8.07937 8.7074 8.12412 8.71427C8.16887 8.72114 8.2146 8.71121 8.25235 8.68643C8.2901 8.66164 8.31715 8.62378 8.32821 8.58027C8.33926 8.53675 8.33353 8.49072 8.31212 8.45117C7.31612 6.9528 4.21181 6.29005 3.83014 7.09687C3.6702 7.43905 3.83014 7.93971 4.23726 8.67449C4.30632 8.79335 4.37539 8.91942 4.459 9.05629L4.61894 9.31562C4.63639 9.3503 4.65581 9.38397 4.6771 9.41647C4.14331 9.83977 3.761 10.4219 3.58659 11.0769C3.10919 11.2402 2.604 11.3088 2.09986 11.2786C1.65276 11.2786 1.47101 11.7433 1.50372 12.4204C1.54534 13.0502 1.72126 13.664 2.01989 14.2214C2.41788 14.7602 2.91038 15.2239 3.4739 15.5901C3.66656 15.7305 3.87376 15.8782 4.09549 16.0259C4.73526 16.4689 5.91301 17.2001 6.14201 17.3478C6.14201 17.391 6.17473 17.4486 6.1929 17.5171C6.24743 17.7044 6.30195 17.9061 6.35284 18.1186C6.43406 18.4584 6.49715 18.8023 6.54186 19.1487C6.55952 19.2753 6.57044 19.4028 6.57458 19.5305C6.57819 19.5761 6.59882 19.6187 6.63242 19.65C6.66603 19.6813 6.71021 19.699 6.75633 19.6998H8.16309C8.20137 19.6997 8.2387 19.6879 8.26994 19.666C8.30118 19.6441 8.3248 19.6131 8.33757 19.5773L8.66108 18.5868L8.73378 18.3707C9.9074 18.6508 11.1108 18.7898 12.3179 18.7849C13.3771 18.8308 14.4363 18.6931 15.4477 18.3779L15.8512 19.5773C15.8628 19.6131 15.8856 19.6443 15.9163 19.6663C15.9471 19.6883 15.9841 19.7001 16.022 19.6998H17.4106C17.4485 19.7001 17.4855 19.6883 17.5163 19.6663C17.547 19.6443 17.5698 19.6131 17.5814 19.5773C17.6759 19.3 17.8068 18.9038 17.974 18.4031L18.3375 17.3226C18.3811 17.1929 18.4102 17.1137 18.4575 16.9624C18.4575 16.9156 18.4829 16.8867 18.4902 16.8687C19.0355 16.3712 19.4698 15.7662 19.7653 15.0926C20.0608 14.419 20.2109 13.6916 20.2059 12.9571C20.2059 12.9175 20.2059 12.8743 20.2059 12.8346C20.2472 12.8362 20.2879 12.8249 20.3222 12.8022L21.4418 11.9666C21.6168 11.8249 21.8407 11.7563 22.0659 11.7755C22.2911 11.7946 22.4999 11.9 22.648 12.0692C22.7961 12.2385 22.8717 12.4582 22.859 12.6818C22.8462 12.9054 22.746 13.1153 22.5796 13.2669L22.3978 13.447C22.3809 13.4638 22.3675 13.4837 22.3583 13.5056C22.3491 13.5276 22.3444 13.5511 22.3444 13.5748C22.3444 13.5986 22.3491 13.6221 22.3583 13.644C22.3675 13.666 22.3809 13.6859 22.3978 13.7027C22.4148 13.7195 22.4349 13.7328 22.457 13.7419C22.4792 13.751 22.5029 13.7557 22.5269 13.7557C22.5508 13.7557 22.5746 13.751 22.5967 13.7419C22.6189 13.7328 22.639 13.7195 22.6559 13.7027L22.8377 13.5226C23.0684 13.2942 23.1986 12.9846 23.2 12.6614C23.2014 12.3383 23.0737 12.0276 22.8449 11.7973ZM15.3568 10.8068C14.669 10.8069 14.0002 10.583 13.4534 10.1695C12.9066 9.75611 12.5121 9.17605 12.3305 8.51867C12.149 7.86129 12.1906 7.16301 12.4488 6.53133C12.7071 5.89965 13.1677 5.36957 13.7598 5.02269C14.3518 4.67582 15.0425 4.53137 15.7256 4.61158C16.4086 4.69179 17.0461 4.99221 17.5399 5.46661C18.0338 5.94101 18.3566 6.56308 18.4587 7.23707C18.5607 7.91107 18.4364 8.59963 18.1049 9.19676C18.0677 9.20306 18.0334 9.22069 18.0067 9.24719C17.9876 9.27057 17.9744 9.29809 17.9681 9.32751C17.9618 9.35693 17.9626 9.38741 17.9704 9.41647C17.6852 9.84478 17.2971 10.1961 16.8409 10.4388C16.3846 10.6815 15.8746 10.808 15.3568 10.8068Z" fill="#007ACD" stroke="#007ACD" stroke-width="0.5"/>
<path d="M15.7627 6.06862H16.7231C16.7699 6.06862 16.8148 6.04921 16.8479 6.01467C16.881 5.98012 16.8996 5.93327 16.8996 5.88441C16.8987 5.83585 16.8798 5.78954 16.8469 5.7552C16.814 5.72085 16.7696 5.70114 16.7231 5.7002H15.7627C15.6134 5.69971 15.4655 5.73009 15.3275 5.78958C15.1896 5.84907 15.0643 5.93649 14.9589 6.0468C14.8535 6.1571 14.7701 6.2881 14.7135 6.43223C14.657 6.57636 14.6283 6.73076 14.6292 6.88651V6.98967H14.2762C14.2293 6.98967 14.1844 7.00907 14.1513 7.04362C14.1182 7.07817 14.0996 7.12502 14.0996 7.17388C14.0996 7.22273 14.1182 7.26959 14.1513 7.30413C14.1844 7.33868 14.2293 7.35809 14.2762 7.35809H14.6292V7.7265H14.2762C14.2293 7.7265 14.1844 7.74591 14.1513 7.78046C14.1182 7.815 14.0996 7.86186 14.0996 7.91071C14.0996 7.95957 14.1182 8.00642 14.1513 8.04097C14.1844 8.07552 14.2293 8.09492 14.2762 8.09492H14.6292C14.6473 8.39529 14.7747 8.6771 14.9854 8.88259C15.1962 9.08808 15.4742 9.20171 15.7627 9.20018H16.7231C16.7699 9.20018 16.8148 9.18077 16.8479 9.14623C16.881 9.11168 16.8996 9.06483 16.8996 9.01597C16.8987 8.96741 16.8798 8.9211 16.8469 8.88676C16.814 8.85241 16.7696 8.8327 16.7231 8.83176H15.7627C15.5683 8.8326 15.3807 8.75739 15.2369 8.62098C15.0931 8.48457 15.0035 8.29687 14.9859 8.09492H15.9145C15.9613 8.09492 16.0062 8.07552 16.0393 8.04097C16.0724 8.00642 16.091 7.95957 16.091 7.91071C16.0901 7.86215 16.0712 7.81585 16.0383 7.7815C16.0054 7.74716 15.961 7.72745 15.9145 7.7265H14.9823V7.35809H15.9145C15.9613 7.35809 16.0062 7.33868 16.0393 7.30413C16.0724 7.26959 16.091 7.22273 16.091 7.17388C16.0901 7.12532 16.0712 7.07901 16.0383 7.04466C16.0054 7.01032 15.961 6.99061 15.9145 6.98967H14.9823V6.88651C14.9819 6.77928 15.0017 6.67301 15.0407 6.5738C15.0797 6.47459 15.1371 6.38439 15.2096 6.3084C15.2821 6.2324 15.3683 6.1721 15.4632 6.13095C15.5581 6.0898 15.6599 6.06862 15.7627 6.06862Z" fill="#007ACD" stroke="#007ACD" stroke-width="0.5"/>
<path d="M5.7002 11.6496C5.70021 11.8575 5.7619 12.0607 5.87747 12.2334C5.99304 12.4062 6.15729 12.5408 6.34941 12.6201C6.54152 12.6994 6.75287 12.72 6.95667 12.6791C7.16046 12.6382 7.34755 12.5378 7.49421 12.3905C7.64088 12.2432 7.74054 12.0557 7.78055 11.8518C7.82057 11.6478 7.79915 11.4365 7.719 11.2447C7.63886 11.053 7.50359 10.8893 7.33034 10.7744C7.1571 10.6596 6.95366 10.5987 6.74581 10.5996C6.60813 10.5996 6.4718 10.6268 6.34465 10.6796C6.21751 10.7324 6.10205 10.8099 6.0049 10.9074C5.90775 11.005 5.83082 11.1208 5.77853 11.2481C5.72624 11.3755 5.69963 11.5119 5.7002 11.6496ZM7.35647 11.6496C7.35647 11.7704 7.32066 11.8885 7.25356 11.9889C7.18646 12.0893 7.09108 12.1676 6.9795 12.2138C6.86791 12.26 6.74513 12.2721 6.62667 12.2486C6.50821 12.225 6.3994 12.1668 6.314 12.0814C6.2286 11.996 6.17044 11.8872 6.14687 11.7688C6.12331 11.6503 6.1354 11.5275 6.18162 11.4159C6.22784 11.3043 6.30611 11.209 6.40654 11.1419C6.50696 11.0748 6.62503 11.0389 6.74581 11.0389C6.82616 11.0384 6.90583 11.0538 6.98019 11.0842C7.05454 11.1147 7.12209 11.1597 7.17892 11.2165C7.23574 11.2733 7.2807 11.3409 7.31118 11.4152C7.34166 11.4896 7.35706 11.5693 7.35647 11.6496Z" fill="#007ACD" stroke="#007ACD" stroke-width="0.5"/>
</g>
<defs>
<clipPath id="clip0_815_4189">
<rect width="22.4" height="22.4" fill="white" transform="translate(0.799805 0.799805)"/>
</clipPath>
</defs>
</svg>
